<?xml version="1.0" encoding="iso-8859-1"?>
<!-- Generator: Adobe Illustrator 19.0.0, SVG Export Plug-In . SVG Version: 6.00 Build 0)  -->
<svg xmlns="http://www.w3.org/2000/svg" xmlns:xlink="http://www.w3.org/1999/xlink" version="1.1" id="Capa_1" x="0px" y="0px" viewBox="0 0 512 512" style="enable-background:new 0 0 512 512;" xml:space="preserve" width="512px" height="512px">
<g>
	<g>
		<path d="M495.015,71.59c-1.884,0.113-46.666,2.887-92.267,11.633c-27.395,5.253-49.432,11.621-65.502,18.923    c-15.476,7.034-26.146,15.353-31.931,24.855c-15.866-4.045-32.479-6.202-49.587-6.202c-16.938,0-33.388,2.118-49.111,6.086    c-5.802-9.455-16.449-17.733-31.862-24.739c-16.07-7.304-38.107-13.67-65.502-18.923C63.651,74.478,18.869,71.703,16.985,71.59    L0,70.564l1.058,16.984c0.12,1.938,3.061,47.999,12.057,94.905c5.399,28.153,11.907,50.792,19.345,67.292    c7.395,16.406,16.171,27.536,26.217,33.3c-2.435,12.475-3.725,25.355-3.725,38.533c0,43.571,13.724,85.018,39.689,119.861    l24.134-17.984c-22.063-29.608-33.726-64.836-33.726-101.877c0-94.113,76.566-170.679,170.679-170.679    s170.68,76.567,170.68,170.679c0,36.979-11.627,72.159-33.622,101.738l24.151,17.959c25.886-34.81,39.568-76.2,39.568-119.698    c0-13.08-1.272-25.868-3.672-38.257c10.25-5.68,19.192-16.903,26.707-33.576c7.437-16.498,13.945-39.138,19.345-67.292    c8.996-46.906,11.937-92.967,12.057-94.905L512,70.563L495.015,71.59z M137.56,159.365c-7.072-4.018-15.262-6.183-20.205-7.486    c-11.949-3.15-23.698-4.862-24.192-4.933l-20.817-3.004l3.878,20.672C76.317,165.114,78.561,177,82,189.093    c1.985,6.981,4.267,14.155,7.421,20.111c-8.798,12.982-16.11,27.046-21.708,41.943c-2.339-3.09-4.984-7.503-7.778-13.689    c-6.466-14.317-12.259-34.651-17.216-60.436c-5.398-28.081-8.572-56.479-10.204-73.991c17.036,1.572,44.325,4.612,71.308,9.799    c24.995,4.806,44.696,10.443,58.558,16.756c6.171,2.81,10.511,5.467,13.493,7.797C162.255,143.309,149.418,150.703,137.56,159.365    z M469.28,177.021c-4.957,25.785-10.749,46.119-17.216,60.436c-2.94,6.508-5.714,11.058-8.141,14.165    c-5.556-14.9-12.828-28.971-21.585-41.964c3.281-6.044,5.624-13.406,7.66-20.565c3.44-12.093,5.683-23.979,5.777-24.479    l3.879-20.672l-20.817,3.004c-0.495,0.071-12.244,1.783-24.192,4.933c-5.015,1.322-13.373,3.527-20.513,7.659    c-11.822-8.662-24.621-16.061-38.201-22.002c2.987-2.367,7.378-5.077,13.686-7.951c13.862-6.313,33.563-11.951,58.558-16.756    c26.983-5.187,54.272-8.227,71.309-9.799C477.853,120.542,474.678,148.94,469.28,177.021z" fill="#FFDA44"/>
	</g>
</g>
<g>
</g>
<g>
</g>
<g>
</g>
<g>
</g>
<g>
</g>
<g>
</g>
<g>
</g>
<g>
</g>
<g>
</g>
<g>
</g>
<g>
</g>
<g>
</g>
<g>
</g>
<g>
</g>
<g>
</g>
</svg>
